<?xml version="1.0" encoding="UTF-8"?>
<svg xmlns="http://www.w3.org/2000/svg" xmlns:xlink="http://www.w3.org/1999/xlink" viewBox="0 0 1677.26 1000">
  <defs>
    <style>
      .cls-1 {
        letter-spacing: -.04em;
      }

      .cls-2 {
        letter-spacing: .86em;
      }

      .cls-3 {
        fill: url(#Dégradé_sans_nom_10-4);
      }

      .cls-3, .cls-4, .cls-5, .cls-6, .cls-7 {
        stroke-width: 0px;
      }

      .cls-4 {
        fill: url(#Dégradé_sans_nom_8);
      }

      .cls-5 {
        fill: url(#Dégradé_sans_nom_10-2);
      }

      .cls-6 {
        fill: url(#Dégradé_sans_nom_10);
      }

      .cls-7 {
        fill: url(#Dégradé_sans_nom_10-3);
      }

      .cls-8 {
        letter-spacing: .84em;
      }

      .cls-9 {
        fill: #073342;
        font-family: Lato-Regular, Lato;
        font-size: 98.5px;
      }
    </style>
    <linearGradient id="Dégradé_sans_nom_10" data-name="Dégradé sans nom 10" x1="881.24" y1="597.1" x2="1239.14" y2="597.1" gradientUnits="userSpaceOnUse">
      <stop offset="0" stop-color="#01baef"></stop>
      <stop offset="1" stop-color="#0b4f6c"></stop>
    </linearGradient>
    <linearGradient id="Dégradé_sans_nom_10-2" data-name="Dégradé sans nom 10" x1="1254.71" y1="604.26" x2="1621.24" y2="604.26" xlink:href="#Dégradé_sans_nom_10"></linearGradient>
    <linearGradient id="Dégradé_sans_nom_10-3" data-name="Dégradé sans nom 10" x1="496.05" y1="294.56" x2="34.3" y2="682.01" xlink:href="#Dégradé_sans_nom_10"></linearGradient>
    <linearGradient id="Dégradé_sans_nom_10-4" data-name="Dégradé sans nom 10" x1="569.51" y1="474.68" x2="869.96" y2="726.79" xlink:href="#Dégradé_sans_nom_10"></linearGradient>
    <linearGradient id="Dégradé_sans_nom_8" data-name="Dégradé sans nom 8" x1="234.09" y1="586.38" x2="577.4" y2="586.38" gradientUnits="userSpaceOnUse">
      <stop offset="0" stop-color="#ffe83e"></stop>
      <stop offset="1" stop-color="#f7741c"></stop>
    </linearGradient>
  </defs>
  <g id="Calque_1" data-name="Calque 1">
    <text class="cls-9" transform="translate(56.02 934.78)">
      <tspan class="cls-8" x="0" y="0">A</tspan>
      <tspan class="cls-2" x="149.86" y="0">GENC</tspan>
      <tspan class="cls-1" x="759.71" y="0">Y</tspan>
    </text>
    <path class="cls-6" d="M1204,681.28l35.14,19.75c-32.93,61.48-96.62,93.69-162.48,93.69-97.34,0-195.42-71-195.42-196.89s98.07-198.35,195.42-198.35c65.87,0,129.55,32.21,162.48,93.69l-35.14,19.77-21.82,14.71-23.05,13.48c-16.81-31.93-48.97-49.4-82.6-49.4-49.46,0-99.88,37.92-99.88,107.27s50.42,106.29,99.88,106.29c33.62,0,65.79-17.46,82.6-49.4l23.05,13.47,21.82,11.93Z"></path>
    <path class="cls-5" d="M1254.71,604.26c0-123.43,91.7-190.46,185.52-190.46s198.9,65.59,178.45,227.1h-274.4c13.41,50.08,57.15,76.22,112.17,76.22,35.95,0,67.72-9.88,94.51-33.14l43.02,45.83c-30.33,38.08-83.22,64.9-148.13,64.9-100.86,0-191.15-68.41-191.15-190.46ZM1534.73,571.81c-5.66-52.21-49.37-78.29-93.82-78.29s-86.07,25.39-98.04,78.29h191.87Z"></path>
  </g>
  <g id="Calque_2" data-name="Calque 2">
    <path class="cls-7" d="M563.69,167.5l-40.5-70.15c-24.71-42.79-86.47-42.79-111.18,0l-173.65,300.77-173.65,300.77c-24.71,42.79,6.18,96.28,55.59,96.28h81c22.93,0,44.12-12.23,55.59-32.09l153.4-265.7,153.4-265.7c11.47-19.86,11.47-44.33,0-64.19Z"></path>
    <path class="cls-3" d="M525.05,497.27l153.4,265.7c11.46,19.86,32.65,32.09,55.58,32.09h81.02c49.41,0,80.28-53.48,55.58-96.27l-173.66-300.78-14.83-25.68c-17.72-30.7-56.97-41.21-87.67-23.49l-60.77,35.08c-30.7,17.72-41.21,56.97-23.49,87.67l14.83,25.68Z"></path>
    <path class="cls-4" d="M524.93,497.06l-14.83-25.68c-16.81-29.12-8.2-65.92,18.93-84.75l-82.19,47.45-36.55,63.31-153.4,265.7c-5.59,9.69-13.51,17.54-22.81,23.07l343.31-198.21-52.47-90.88Z"></path>
  </g>
</svg>
